<?xml version="1.0" encoding="UTF-8" standalone="no"?>
<svg
   xmlns:dc="http://purl.org/dc/elements/1.1/"
   xmlns:cc="http://creativecommons.org/ns#"
   xmlns:rdf="http://www.w3.org/1999/02/22-rdf-syntax-ns#"
   xmlns:svg="http://www.w3.org/2000/svg"
   xmlns="http://www.w3.org/2000/svg"
   viewBox="0 0 1020.28 284.85333"
   height="100"
   width="100"
   xml:space="preserve"
   id="svg2"
   version="1.1"><metadata
     id="metadata8"><rdf:RDF><cc:Work
         rdf:about=""><dc:format>image/svg+xml</dc:format><dc:type
           rdf:resource="http://purl.org/dc/dcmitype/StillImage" /></cc:Work></rdf:RDF></metadata><defs
     id="defs6" /><g
     transform="matrix(1.3333333,0,0,-1.3333333,0,284.85333)"
     id="g10"><g
       transform="scale(0.1)"
       id="g12"><path
         id="path14"
         style="fill:#2c2a2a;fill-opacity:1;fill-rule:nonzero;stroke:none"
         d="m 5603.7,414.699 312.5,804.321 h -279.69 v 235.33 h 731.04 L 6064.71,650.031 H 6371.4 V 414.699 h -767.7" /><path
         id="path16"
         style="fill:#2c2a2a;fill-opacity:1;fill-rule:nonzero;stroke:none"
         d="m 7496.05,1461.29 v -111.81 h -16.47 v 111.81 h -25.87 v 11.09 h 68.2 v -11.09 h -25.86" /><path
         id="path18"
         style="fill:#2c2a2a;fill-opacity:1;fill-rule:nonzero;stroke:none"
         d="m 2862.87,885.332 c -15.43,0 -23.17,0 -61.73,3.859 V 414.672 H 2428.86 V 1685.81 c 113.83,48.23 264.27,79.07 437.86,79.07 397.36,0 547.79,-200.59 547.79,-437.84 0,-250.75 -169.72,-441.708 -551.64,-441.708 m 7.72,665.458 c -25.08,0 -50.16,-3.85 -69.45,-9.63 v -435.92 c 42.44,-3.86 48.22,-3.86 61.73,-3.86 136.95,0 189.04,86.78 189.04,227.58 0,140.81 -48.24,221.83 -181.32,221.83" /><path
         id="path20"
         style="fill:#2c2a2a;fill-opacity:1;fill-rule:nonzero;stroke:none"
         d="m 3977.78,391.57 c -320.2,0 -486.1,111.84 -486.1,337.539 0,260.371 268.11,337.541 580.59,366.471 v 38.57 c 0,79.09 -53.99,113.81 -156.23,113.81 -98.39,0 -212.19,-30.87 -287.41,-65.57 l -77.16,212.18 c 113.81,46.27 273.91,82.92 422.4,82.92 268.15,0 441.72,-108.01 441.72,-401.2 V 470.66 c -92.57,-46.328 -244.95,-79.09 -437.81,-79.09 m 94.49,538.149 c -167.82,-17.367 -239.19,-73.328 -239.19,-185.199 0,-102.25 57.85,-150.438 160.12,-150.438 32.75,0 59.77,3.848 79.07,13.508 v 322.129" /><path
         id="path22"
         style="fill:#2c2a2a;fill-opacity:1;fill-rule:nonzero;stroke:none"
         d="m 5061.77,0 h -381.94 l 173.59,414.672 -349.1,1039.668 h 395.41 l 108.03,-553.559 c 11.56,-63.66 17.35,-108.019 23.09,-177.492 h 3.92 c 7.7,67.543 13.48,111.91 28.9,177.492 l 127.3,553.559 H 5545.9 L 5061.77,0" /><path
         id="path24"
         style="fill:#2c2a2a;fill-opacity:1;fill-rule:nonzero;stroke:none"
         d="m 6975.09,391.57 c -320.19,0 -486.07,111.84 -486.07,337.539 0,260.371 268.08,337.541 580.58,366.471 v 38.57 c 0,79.09 -54,113.81 -156.25,113.81 -98.36,0 -212.14,-30.87 -287.37,-65.57 l -77.16,212.18 c 113.79,46.27 273.91,82.92 422.43,82.92 268.1,0 441.69,-108.01 441.69,-401.2 V 470.66 c -92.57,-46.328 -244.96,-79.09 -437.85,-79.09 m 94.51,538.149 c -167.8,-17.367 -239.17,-73.328 -239.17,-185.199 0,-102.25 57.87,-150.438 160.09,-150.438 32.78,0 59.79,3.848 79.08,13.508 v 322.129" /><path
         id="path26"
         style="fill:#2c2a2a;fill-opacity:1;fill-rule:nonzero;stroke:none"
         d="m 7636.4,1349.48 -9.27,91.98 c -0.53,4.46 -0.73,9.29 -0.91,14.46 h -0.36 c -0.51,-2.86 -2.13,-10 -3.37,-14.46 l -26.25,-91.98 h -10.55 l -25.91,91.98 c -1.24,4.65 -1.96,7.51 -3.4,14.46 h -0.33 c -0.22,-6.05 -0.55,-10.54 -0.89,-14.46 l -9.66,-91.98 h -14.11 l 14.66,122.9 h 17.32 l 24.99,-88.6 c 1.44,-5.01 2.33,-9.28 3.23,-15.18 h 0.34 c 0.9,5.9 1.79,10.17 3.25,15.18 l 24.98,88.6 h 17.5 l 14.48,-122.9 h -15.74" /><path
         id="path28"
         style="fill:#2ea845;fill-opacity:1;fill-rule:nonzero;stroke:none"
         d="m 1605.86,1866.99 c -163.01,163.61 -421.64,269.37 -712.926,269.37 -421.082,0 -762.625,-183.07 -868.2426,-518.48 C 11.4922,1557.23 3.38672,1494.33 0.894531,1429.81 0.300781,1415.57 0,1401.29 0,1386.9 0,852.551 390.625,406.789 865.313,404.77 c 5.386,-0.051 35.156,0.46 35.445,13.101 0.234,9.84 -39.723,21.231 -39.723,21.231 -139.844,40.007 -250.453,138.398 -284.683,279.457 -3.965,16.402 -6.922,33.242 -8.75,50.461 -0.192,1.75 -0.407,3.539 -0.567,5.359 -1.234,49.66 0.305,52.75 53.426,39.93 0.746,-0.168 1.488,-0.34 2.238,-0.508 9.406,-2.25 18.848,-4.481 28.364,-6.531 76.96,-16.372 158.054,-25.25 241.871,-25.25 168.536,0 326.106,35.41 460.606,96.921 147,67.25 266.32,165.699 342.09,283.279 57.82,89.66 90.3,190.44 90.3,296.98 0,153.12 -67.04,294.35 -180.07,407.79 m -464.3,-701.58 c -87.24,-35.85 -191.79,-56.77 -304.271,-56.77 -47.445,0 -88.914,3.72 -125.215,10.7 -196.621,37.9 -239.164,172.05 -239.164,331.7 0,162.89 97.528,315.25 357.633,326.01 339.847,14.05 558.507,-136.87 558.507,-326.01 0,-119.3 -98.37,-224.35 -247.49,-285.63" /></g></g></svg>