<?xml version="1.0" encoding="UTF-8" standalone="no"?>
<svg
   xmlns:dc="http://purl.org/dc/elements/1.1/"
   xmlns:cc="http://creativecommons.org/ns#"
   xmlns:rdf="http://www.w3.org/1999/02/22-rdf-syntax-ns#"
   xmlns:svg="http://www.w3.org/2000/svg"
   xmlns="http://www.w3.org/2000/svg"
   viewBox="0 0 266.66666 156"
   height="100"
   width="100"
   xml:space="preserve"
   id="svg2"
   version="1.1"><metadata
     id="metadata8"><rdf:RDF><cc:Work
         rdf:about=""><dc:format>image/svg+xml</dc:format><dc:type
           rdf:resource="http://purl.org/dc/dcmitype/StillImage" /></cc:Work></rdf:RDF></metadata><defs
     id="defs6"><clipPath
       id="clipPath18"
       clipPathUnits="userSpaceOnUse"><path
         id="path16"
         d="M 0,117 H 200 V 0 H 0 Z" /></clipPath></defs><g
     transform="matrix(1.3333333,0,0,-1.3333333,0,156)"
     id="g10"><g
       id="g12"><g
         clip-path="url(#clipPath18)"
         id="g14"><g
           transform="translate(137.0908,73.6416)"
           id="g20"><path
             id="path22"
             style="fill:#862165;fill-opacity:1;fill-rule:nonzero;stroke:none"
             d="M 0,0 C 3.87,0 7.005,3.134 7.005,7 7.005,10.867 3.87,14.004 0,14.004 -3.863,14.004 -6.998,10.867 -6.998,7 -6.998,3.134 -3.863,0 0,0 M -53.648,-3.779 C -53.965,-4.574 -56.239,-11 -61.742,-17.66 V 10.817 L -76.402,7.92 V -43.7 h 14.66 v 15.956 c 4.247,-6.367 6.343,-15.956 6.343,-15.956 h 17.56 c -1.737,7.221 -9.335,20.536 -9.335,20.536 6.819,8.645 9.814,17.857 10.29,19.385 z m 38.54,0.538 c -13.13,-0.422 -19.797,-6.313 -19.797,-18.024 V -43.7 h 14.327 v 18.296 c 0,7.011 0.918,10.018 9.238,10.304 v 11.653 c -1.4,0.298 -3.768,0.206 -3.768,0.206 m -85.88,-6.223 c -1.796,0.117 -5.953,0.386 -5.953,4.129 0,4.516 5.985,4.516 8.23,4.516 3.947,0 9.059,-1.165 12.71,-2.258 0,0 2.037,-0.718 3.77,-1.453 l 0.161,-0.044 V -4.41 7.795 l -0.221,0.065 c -4.309,1.507 -9.319,2.957 -18.607,2.957 -16.015,0 -21.689,-9.329 -21.689,-17.321 0,-4.607 1.974,-15.451 20.316,-16.702 1.554,-0.095 5.68,-0.333 5.68,-4.2 0,-3.194 -3.378,-5.076 -9.059,-5.076 -6.226,0 -12.268,1.587 -15.936,3.093 v -12.738 c 5.493,-1.439 11.683,-2.159 18.94,-2.159 15.659,0 22.672,8.827 22.672,17.575 0,9.919 -7.848,16.365 -21.014,17.247 M -7.101,-43.7 H 7.108 V -3.825 H -7.101 Z M 33.864,8.276 V -43.7 h 14.212 v 54.517 z m -20.736,0 14.197,2.541 V -43.7 H 13.128 Z" /></g></g></g></g></svg>